<svg xmlns="http://www.w3.org/2000/svg" width="1580" height="480" viewBox="0 0 1580 480">
<rect width="1580" height="480" fill="#f7fbff"/>
<style>text{font:12px sans-serif;fill:#24445f}.node{font-size:14px;font-weight:600}</style>
<text x="40" y="42" style="font-size:21px;font-weight:700">Paper Refinery Benchmark - 03 Balanced chain with normalized electricity supply - 20260831T135829Z</text>
<text x="40" y="68">All links cite ProviderSolveResponse.scaled_exchanges.</text>
<path d="M 450 164 C 485.0 164, 485.0 182, 520 182" fill="none" stroke="#2386df" stroke-width="13.17" stroke-opacity="0.65"/>
<path d="M 670 182 C 705.0 182, 705.0 182, 740 182" fill="none" stroke="#2386df" stroke-width="12.94" stroke-opacity="0.65"/>
<path d="M 890 200 C 925.0 200, 925.0 182, 960 182" fill="none" stroke="#2386df" stroke-width="12.94" stroke-opacity="0.65"/>
<path d="M 230 164 C 265.0 164, 265.0 182, 300 182" fill="none" stroke="#2386df" stroke-width="16.65" stroke-opacity="0.65"/>
<path d="M 230 182 C 375.0 182, 375.0 182, 520 182" fill="none" stroke="#2386df" stroke-width="19.49" stroke-opacity="0.65"/>
<path d="M 230 200 C 485.0 200, 485.0 182, 740 182" fill="none" stroke="#2386df" stroke-width="16.65" stroke-opacity="0.65"/>
<path d="M 230 164 C 595.0 164, 595.0 182, 960 182" fill="none" stroke="#2386df" stroke-width="11.07" stroke-opacity="0.65"/>
<path d="M 230 182 C 705.0 182, 705.0 362, 1180 362" fill="none" stroke="#2386df" stroke-width="5.56" stroke-opacity="0.65"/>
<path d="M 450 200 C 815.0 200, 815.0 362, 1180 362" fill="none" stroke="#2386df" stroke-width="5.26" stroke-opacity="0.65"/>
<path d="M 670 164 C 925.0 164, 925.0 362, 1180 362" fill="none" stroke="#2386df" stroke-width="5.55" stroke-opacity="0.65"/>
<path d="M 890 182 C 1035.0 182, 1035.0 362, 1180 362" fill="none" stroke="#2386df" stroke-width="6.00" stroke-opacity="0.65"/>
<path d="M 1110 200 C 1145.0 200, 1145.0 362, 1180 362" fill="none" stroke="#2386df" stroke-width="5.00" stroke-opacity="0.65"/>
<rect x="80" y="150" width="150" height="64" rx="10" fill="#fff" stroke="#1778d4" stroke-width="2"/>
<text x="155" y="188" text-anchor="middle" class="node">Refinery electricity supply chain</text>
<rect x="300" y="150" width="150" height="64" rx="10" fill="#fff" stroke="#1778d4" stroke-width="2"/>
<text x="375" y="188" text-anchor="middle" class="node">Atmospheric distillation</text>
<rect x="520" y="150" width="150" height="64" rx="10" fill="#fff" stroke="#1778d4" stroke-width="2"/>
<text x="595" y="188" text-anchor="middle" class="node">Naphtha hydrotreating</text>
<rect x="740" y="150" width="150" height="64" rx="10" fill="#fff" stroke="#1778d4" stroke-width="2"/>
<text x="815" y="188" text-anchor="middle" class="node">Catalytic reforming</text>
<rect x="960" y="150" width="150" height="64" rx="10" fill="#fff" stroke="#1778d4" stroke-width="2"/>
<text x="1035" y="188" text-anchor="middle" class="node">Gasoline blending</text>
<rect x="1180" y="330" width="150" height="64" rx="10" fill="#fff" stroke="#1778d4" stroke-width="2"/>
<text x="1255" y="368" text-anchor="middle" class="node">Air</text>
<text x="485" y="154" text-anchor="middle">Straight-run naphtha: 0.84 kg</text>
<text x="705" y="172" text-anchor="middle">Hydrotreated naphtha: 0.8 kg</text>
<text x="925" y="172" text-anchor="middle">Reformate: 0.8 kg</text>
<text x="265" y="154" text-anchor="middle">Refinery electricity supply: 1.6 MJ</text>
<text x="375" y="172" text-anchor="middle">Refinery electricity supply: 2.4 MJ</text>
<text x="485" y="172" text-anchor="middle">Refinery electricity supply: 1.6 MJ</text>
<text x="595" y="154" text-anchor="middle">Refinery electricity supply: 0.5 MJ</text>
<text x="705" y="172" text-anchor="middle">CO2 fossil: 0.0244 kg</text>
<text x="815" y="190" text-anchor="middle">CO2 fossil: 0.016 kg</text>
<text x="925" y="154" text-anchor="middle">CO2 fossil: 0.024 kg</text>
<text x="1035" y="172" text-anchor="middle">CO2 fossil: 0.04 kg</text>
<text x="1145" y="190" text-anchor="middle">CO2 fossil: 0.01 kg</text>
</svg>